<svg xmlns="http://www.w3.org/2000/svg" version="1.1" xmlns:xlink="http://www.w3.org/1999/xlink" xmlns:svgjs="http://svgjs.dev/svgjs" width="1000" height="429" viewBox="0 0 1000 429"><g transform="matrix(1,0,0,1,-0.6060606060606233,0.14790509396408424)"><svg viewBox="0 0 396 170" data-background-color="#ffffff" preserveAspectRatio="xMidYMid meet" height="429" width="1000" xmlns="http://www.w3.org/2000/svg" xmlns:xlink="http://www.w3.org/1999/xlink"><g id="tight-bounds" transform="matrix(1,0,0,1,0.2400000000000091,-0.05861041019555557)"><svg viewBox="0 0 395.52 170.1172208203911" height="170.1172208203911" width="395.52"><g><svg viewBox="0 0 395.52 170.1172208203911" height="170.1172208203911" width="395.52"><g transform="matrix(1,0,0,1,0,102.32328830037619)"><svg viewBox="0 0 395.52 67.79393252001492" height="67.79393252001492" width="395.52"><g id="textblocktransform"><svg viewBox="0 0 395.52 67.79393252001492" height="67.79393252001492" width="395.52" id="textblock"><g><svg viewBox="0 0 395.52 36.56480776409107" height="36.56480776409107" width="395.52"><g transform="matrix(1,0,0,1,0,0)"><svg width="395.52" viewBox="2.8 -36.15 401.83 37.15" height="36.56480776409107" data-palette-color="#ed2647"><path d="M23.2-14.5L23.2-14.5 23.15-8Q23.15-7.55 23.45-7.23 23.75-6.9 24.25-6.9L24.25-6.9Q27.3-6.9 29.28-8.1 31.25-9.3 31.25-11.88 31.25-14.45 29.2-15.45L29.2-15.45Q27.55-16.25 25.6-16.25L25.6-16.25Q25.1-16.25 24.6-16.2L24.6-16.2Q23.2-16.1 23.2-14.5ZM23.15-28.25L23.15-28.25 23.2-24.15Q23.2-23.2 24.35-23.2L24.35-23.2Q29.4-23.2 29.4-26.05L29.4-26.05Q29.4-29.35 24.9-29.35L24.9-29.35Q24.6-29.35 24.35-29.35L24.35-29.35Q23.15-29.35 23.15-28.25ZM6.8-34.95L6.8-34.95Q13-35.15 22.3-35.15 31.6-35.15 35.18-34.98 38.75-34.8 41.5-32.2 44.25-29.6 44.25-26.2L44.25-26.2Q44.25-22.05 40.65-20.1L40.65-20.1Q40.3-19.9 40.3-19.63 40.3-19.35 40.65-19.25L40.65-19.25Q43.25-18.55 45.03-16.25 46.8-13.95 46.8-10.8L46.8-10.8Q46.8-6.85 43.75-3.65 40.7-0.45 34.4-0.18 28.1 0.1 25.3 0.1 22.5 0.1 6.6-0.05L6.6-0.05Q5.15-0.05 4.25-0.98 3.35-1.9 3.2-3.1L3.2-3.1Q2.8-7.5 2.8-15.93 2.8-24.35 3.15-30.3L3.15-30.3Q3.3-32.75 4-33.83 4.7-34.9 6.8-34.95ZM75.85 1L75.85 1Q69.8 1 64.9-0.58 60-2.15 56.95-4.8 53.9-7.45 52.3-10.73 50.7-14 50.7-17.55 50.7-21.1 52.32-24.38 53.95-27.65 56.97-30.3 60-32.95 64.9-34.55 69.8-36.15 75.65-36.15 81.5-36.15 86-34.7 90.5-33.25 93.25-30.75L93.25-30.75Q98.85-25.65 98.85-18.65L98.85-18.65Q98.85-15.1 97.32-11.7 95.8-8.3 92.97-5.53 90.15-2.75 85.7-0.98 81.25 0.8 75.85 1ZM85.75-18.43Q85.75-20.8 84.05-22.58 82.35-24.35 78.87-24.35 75.4-24.35 73.35-22.5 71.3-20.65 71.3-18 71.3-15.35 73.45-13.75 75.6-12.15 78.62-12.15 81.65-12.15 83.7-14.1 85.75-16.05 85.75-18.43ZM128 1L128 1Q121.95 1 117.05-0.58 112.15-2.15 109.1-4.8 106.05-7.45 104.45-10.73 102.85-14 102.85-17.55 102.85-21.1 104.47-24.38 106.1-27.65 109.12-30.3 112.15-32.95 117.05-34.55 121.95-36.15 127.8-36.15 133.65-36.15 138.15-34.7 142.65-33.25 145.4-30.75L145.4-30.75Q151-25.65 151-18.65L151-18.65Q151-15.1 149.47-11.7 147.95-8.3 145.12-5.53 142.3-2.75 137.85-0.98 133.4 0.8 128 1ZM137.9-18.43Q137.9-20.8 136.2-22.58 134.5-24.35 131.02-24.35 127.55-24.35 125.5-22.5 123.45-20.65 123.45-18 123.45-15.35 125.6-13.75 127.75-12.15 130.77-12.15 133.8-12.15 135.85-14.1 137.9-16.05 137.9-18.43ZM176.84-22.95L176.84-22.95 176.79-12.95Q176.79-10.75 177.47-9.68 178.14-8.6 180.29-8.6L180.29-8.6 192.94-8.6Q195.24-8.55 195.24-5.1L195.24-5.1Q195.24-2.45 194.59-1.25 193.94-0.05 191.94 0L191.94 0Q184.89 0.2 177.99 0.2 171.09 0.2 160.39 0.1L160.39 0.1Q158.59 0.1 157.47-0.78 156.34-1.65 156.19-3.2L156.19-3.2Q155.79-7.55 155.79-16.93 155.79-26.3 156.02-29.58 156.24-32.85 156.94-33.93 157.64-35 159.69-35L159.69-35 173.09-35Q175.19-35 175.87-33.9 176.54-32.8 176.69-30.35 176.84-27.9 176.84-22.95ZM219.54-6.45L219.54-6.45 219.54-2.25Q219.54-0.1 216.62 0.05 213.69 0.2 210.27 0.2 206.84 0.2 202.44-0.05L202.44-0.05Q200.99-0.15 200.12-1.05 199.24-1.95 199.09-3.1L199.09-3.1Q198.69-7.5 198.69-16.93 198.69-26.35 198.99-30.65 199.29-34.95 203.34-35L203.34-35Q207.99-35.1 213.29-35.1 218.59-35.1 224.77-34.95 230.94-34.8 234.84-30.3 238.74-25.8 238.74-20.4 238.74-15 235.29-11.5 231.84-8 225.19-8L225.19-8 221.29-8Q220.64-8 220.09-7.55 219.54-7.1 219.54-6.45ZM219.49-24.55L219.49-24.55 219.59-15.3Q219.59-14.35 220.64-14.35L220.64-14.35Q223.74-14.35 225.52-16.07 227.29-17.8 227.29-20.15 227.29-22.5 225.62-24.2 223.94-25.9 220.69-25.9L220.69-25.9Q219.49-25.9 219.49-24.55ZM247.49-35L247.49-35 260.89-35Q262.99-35 263.66-33.95 264.34-32.9 264.56-29.63 264.79-26.35 264.79-16.93 264.79-7.5 264.39-3.1L264.39-3.1Q264.24-1.95 263.36-1.05 262.49-0.15 261.04-0.05L261.04-0.05Q258.19 0.15 254.44 0.15 250.69 0.15 247.34-0.05L247.34-0.05Q245.89-0.15 245.01-1.05 244.14-1.95 243.99-3.1L243.99-3.1Q243.59-7.5 243.59-16.93 243.59-26.35 243.81-29.63 244.04-32.9 244.71-33.95 245.39-35 247.49-35ZM271.54-28.85L271.54-28.85 271.54-32.55Q271.54-33.85 272.16-34.38 272.79-34.9 275.51-34.98 278.24-35.05 283.74-35.1 289.24-35.15 295.89-35.15L295.89-35.15Q295.89-35.15 304.89-35.15L304.89-35.15Q306.09-35.15 307.11-34.5 308.14-33.85 308.14-32.85L308.14-32.85 308.14-28.75Q308.14-27.95 307.89-27.5L307.89-27.5Q307.89-27.5 307.59-26.9L307.59-26.9Q307.54-26.75 307.24-26.3L307.24-26.3 306.84-25.7Q302.19-18.35 296.09-9.85L296.09-9.85Q295.49-9 295.66-8.43 295.84-7.85 296.59-7.85L296.59-7.85 306.14-7.85Q307.19-7.85 307.76-7.13 308.34-6.4 308.34-5.55L308.34-5.55 308.34-2.65Q308.34-0.05 306.14 0.05L306.14 0.05Q299.59 0.2 289.94 0.2 280.29 0.2 274.54 0L274.54 0Q271.99-0.1 270.81-0.68 269.64-1.25 269.64-2.9L269.64-2.9 269.64-6.75Q269.64-8.4 270.64-10.05L270.64-10.05Q275.84-18.3 281.49-25.8L281.49-25.8Q281.94-26.45 281.64-26.9 281.34-27.35 280.49-27.35L280.49-27.35 273.89-27.35Q272.89-27.35 272.21-27.78 271.54-28.2 271.54-28.85ZM313.73-28.85L313.73-28.85 313.73-32.55Q313.73-33.85 314.36-34.38 314.98-34.9 317.71-34.98 320.43-35.05 325.93-35.1 331.43-35.15 338.08-35.15L338.08-35.15Q338.08-35.15 347.08-35.15L347.08-35.15Q348.28-35.15 349.31-34.5 350.33-33.85 350.33-32.85L350.33-32.85 350.33-28.75Q350.33-27.95 350.08-27.5L350.08-27.5Q350.08-27.5 349.78-26.9L349.78-26.9Q349.73-26.75 349.43-26.3L349.43-26.3 349.03-25.7Q344.38-18.35 338.28-9.85L338.28-9.85Q337.68-9 337.86-8.43 338.03-7.85 338.78-7.85L338.78-7.85 348.33-7.85Q349.38-7.85 349.96-7.13 350.53-6.4 350.53-5.55L350.53-5.55 350.53-2.65Q350.53-0.05 348.33 0.05L348.33 0.05Q341.78 0.2 332.13 0.2 322.48 0.2 316.73 0L316.73 0Q314.18-0.1 313.01-0.68 311.83-1.25 311.83-2.9L311.83-2.9 311.83-6.75Q311.83-8.4 312.83-10.05L312.83-10.05Q318.03-18.3 323.68-25.8L323.68-25.8Q324.13-26.45 323.83-26.9 323.53-27.35 322.68-27.35L322.68-27.35 316.08-27.35Q315.08-27.35 314.41-27.78 313.73-28.2 313.73-28.85ZM387.28-32.65L387.28-32.65 403.63-5Q404.63-3.35 404.63-2.23 404.63-1.1 403.73-0.55 402.83 0 401.63 0L401.63 0 385.53 0Q383.08 0 382.38-0.9L382.38-0.9Q382.18-1.2 381.83-1.95L381.83-1.95 380.38-5.05Q379.73-6.5 377.33-6.7L377.33-6.7 367.88-6.7Q366.83-6.7 366.28-6.5 365.73-6.3 365.38-5.6L365.38-5.6 363.43-1.55Q362.93-0.65 362.33-0.33 361.73 0 360.58 0L360.58 0 356.08 0Q354.13 0 353.98-1.4L353.98-1.4Q353.93-1.6 353.93-1.8L353.93-1.8Q353.93-2.95 354.68-4L354.68-4 370.33-31.6Q372.58-35.5 377.63-35.5L377.63-35.5 381.63-35.5Q385.63-35.5 387.28-32.65ZM371.08-19.85L371.08-19.85 368.78-15.3Q368.58-14.85 368.58-14.5L368.58-14.5Q368.58-13.2 369.83-13.2L369.83-13.2 374.38-13.2Q375.43-13.2 375.83-13.73 376.23-14.25 376.23-14.65 376.23-15.05 376.08-15.45L376.08-15.45 374.18-19.75Q373.58-21.05 372.63-21.05 371.68-21.05 371.08-19.85Z" opacity="1" transform="matrix(1,0,0,1,0,0)" fill="#ed2647" class="undefined-text-0" data-fill-palette-color="primary" id="text-0"></path></svg></g></svg></g><g transform="matrix(1,0,0,1,0,45.196881321806636)"><svg viewBox="0 0 395.52 22.59705119820828" height="22.59705119820828" width="395.52"><g transform="matrix(1,0,0,1,0,0)"><svg width="395.52" viewBox="0.32 -37.35 847.81 48.43" height="22.59705119820828" data-palette-color="#ed2647"><path d="M12.52 0L12.5-13.79 0.32-37.35 4.86-37.35 12.84-21.31 14.65-17.19 16.43-21.39 24.24-37.35 28.83-37.35 16.65-13.79 16.63 0 12.52 0ZM145.47-29.05L145.47-12.79Q145.47-4.74 145.93-0.2L145.93-0.2 142.3 0.1 141.71-3.34Q138.85-0.98 135.05 0.07L135.05 0.07Q133.53 0.49 131.44 0.49 129.36 0.49 127.71-0.01 126.06-0.51 125.08-1.61L125.08-1.61Q123.3-3.59 123.3-8.81L123.3-8.81 123.3-29.05 127.4-29.05 127.4-9.47Q127.4-5.96 128.09-4.94 128.77-3.93 129.71-3.58 130.65-3.22 131.95-3.22 133.24-3.22 134.45-3.43 135.66-3.64 136.88-4.03L136.88-4.03Q139.44-4.86 141.52-6.3L141.52-6.3 141.52-6.32Q141.42-8.18 141.42-13.55L141.42-13.55 141.42-29.05 145.47-29.05ZM258.49-25.73L258.49-25.73Q254.52-25.73 249.8-22.92L249.8-22.92 249.8 0 245.75 0 245.75-29.05 249.31-29.05 249.71-26.05Q253.98-29.54 259.28-29.54L259.28-29.54Q262.3-29.54 264.05-28.67 265.79-27.81 266.58-25.83L266.58-25.83Q271.97-29.54 276.83-29.54L276.83-29.54Q281.42-29.54 283.2-27.44L283.2-27.44Q284.91-25.42 284.91-20.24L284.91-20.24 284.91 0 280.81 0 280.81-19.48Q280.81-23 280.13-24.01 279.44-25.02 278.5-25.38 277.56-25.73 276.3-25.73 275.05-25.73 273.94-25.5 272.83-25.27 271.68-24.88L271.68-24.88Q269.36-24.07 267.23-22.83L267.23-22.83Q267.36-21.36 267.36-20.24L267.36-20.24 267.36 0 263.26 0 263.26-19.48Q263.26-23 262.57-24.01 261.89-25.02 260.95-25.38 260.01-25.73 258.49-25.73ZM397.37-25.73L397.37-25.73Q393.39-25.73 388.68-22.92L388.68-22.92 388.68 0 384.63 0 384.63-29.05 388.19-29.05 388.58-26.05Q392.86-29.54 398.15-29.54L398.15-29.54Q401.18-29.54 402.93-28.67 404.67-27.81 405.45-25.83L405.45-25.83Q410.85-29.54 415.71-29.54L415.71-29.54Q420.3-29.54 422.08-27.44L422.08-27.44Q423.79-25.42 423.79-20.24L423.79-20.24 423.79 0 419.69 0 419.69-19.48Q419.69-23 419-24.01 418.32-25.02 417.38-25.38 416.44-25.73 415.18-25.73 413.93-25.73 412.82-25.5 411.7-25.27 410.56-24.88L410.56-24.88Q408.24-24.07 406.11-22.83L406.11-22.83Q406.24-21.36 406.24-20.24L406.24-20.24 406.24 0 402.13 0 402.13-19.48Q402.13-23 401.45-24.01 400.77-25.02 399.83-25.38 398.89-25.73 397.37-25.73ZM521.73 10.21L522.82 7.03Q524.61 7.67 525.74 7.67 526.88 7.67 527.23 7.6 527.58 7.54 527.95 7.35L527.95 7.35Q528.81 6.88 529.22 5.83L529.22 5.83Q530.25 3.34 531 0.37L531 0.37 519.8-29.05 524.31-29.05 531.88-7.64 533.03-3.88 534.08-7.67 540.77-29.05 545.02-29.05 532.76 6.88Q531.42 11.08 526.56 11.08L526.56 11.08Q523.48 11.08 521.73 10.21L521.73 10.21ZM640.83-10.06L640.02-37.35 644.61-37.35 644.03-10.06 640.83-10.06ZM640.33-0.04Q639.88-0.54 639.75-1.16 639.63-1.78 639.63-2.75 639.63-3.71 639.77-4.32 639.9-4.93 640.22-5.27L640.22-5.27Q640.8-5.91 642.07-5.91 643.34-5.91 643.89-5.77 644.44-5.64 644.76-5.27L644.76-5.27Q645.32-4.66 645.32-2.76L645.32-2.76Q645.32-0.85 644.88-0.34L644.88-0.34Q644.2 0.46 642.49 0.46L642.49 0.46Q640.78 0.46 640.33-0.04ZM742.23-10.06L741.43-37.35 746.02-37.35 745.43-10.06 742.23-10.06ZM741.73-0.04Q741.28-0.54 741.16-1.16 741.04-1.78 741.04-2.75 741.04-3.71 741.17-4.32 741.3-4.93 741.62-5.27L741.62-5.27Q742.21-5.91 743.48-5.91 744.75-5.91 745.3-5.77 745.85-5.64 746.16-5.27L746.16-5.27Q746.72-4.66 746.72-2.76L746.72-2.76Q746.72-0.85 746.28-0.34L746.28-0.34Q745.6 0.46 743.89 0.46L743.89 0.46Q742.18 0.46 741.73-0.04ZM843.63-10.06L842.83-37.35 847.42-37.35 846.83-10.06 843.63-10.06ZM843.13-0.04Q842.68-0.54 842.56-1.16 842.44-1.78 842.44-2.75 842.44-3.71 842.57-4.32 842.71-4.93 843.02-5.27L843.02-5.27Q843.61-5.91 844.88-5.91 846.15-5.91 846.7-5.77 847.25-5.64 847.57-5.27L847.57-5.27Q848.13-4.66 848.13-2.76L848.13-2.76Q848.13-0.85 847.69-0.34L847.69-0.34Q847 0.46 845.3 0.46L845.3 0.46Q843.59 0.46 843.13-0.04Z" opacity="1" transform="matrix(1,0,0,1,0,0)" fill="#ed2647" class="undefined-text-1" data-fill-palette-color="secondary" id="text-1"></path></svg></g></svg></g></svg></g></svg></g><g transform="matrix(1,0,0,1,154.49442831463315,0)"><svg viewBox="0 0 86.53114337073369 93.69121474266063" height="93.69121474266063" width="86.53114337073369"><g><svg xmlns="http://www.w3.org/2000/svg" xmlns:xlink="http://www.w3.org/1999/xlink" version="1.1" x="8" y="0" viewBox="0.00020041714690386542 0 74.71431485316431 99.248" enable-background="new 0 0 74.715 99.248" xml:space="preserve" width="70.53114337073369" height="93.69121474266063" class="icon-icon-0" data-fill-palette-color="accent" id="icon-0"><g fill="#ed2647" data-fill-palette-color="accent"><path d="M74.714 8.56c0.022-1.228-0.662-2.36-1.761-2.914C65.625 1.952 57.431 0 49.253 0c-7.419 0-14.642 1.552-21.462 4.611C14.996 10.354 5.201 20.734 0.21 33.845c-0.472 1.24-0.131 2.642 0.856 3.524l64.396 60.99c0.127 0.123 0.283 0.176 0.423 0.275 0.169 0.113 0.322 0.244 0.513 0.324 0.236 0.102 0.478 0.139 0.723 0.184 0.136 0.023 0.256 0.092 0.399 0.098 0.05 0.004 0.101 0.008 0.151 0.008l0 0 0 0h0.003c0.431 0 0.841-0.092 1.219-0.246 0.068-0.029 0.121-0.092 0.188-0.123 0.311-0.156 0.602-0.336 0.846-0.58 0.017-0.02 0.039-0.027 0.059-0.045 0.097-0.1 0.136-0.23 0.217-0.342 0.148-0.205 0.299-0.4 0.4-0.637 0.081-0.191 0.104-0.391 0.146-0.594 0.035-0.166 0.11-0.312 0.118-0.484 0 0 3.681-78.043 3.681-78.063L74.714 8.56zM64.803 88.89L13.727 40.198c3.404-9.822 10.621-17.822 20.122-22.086 10.992-4.93 23.825-4.144 34.206 1.796L64.803 88.89zM30.411 10.454c11.992-5.385 25.938-5.327 37.867 0.052L68.239 12.7c-11.521-5.489-25.22-5.717-37.009-0.429-10.282 4.614-18.324 12.94-22.625 23.253l-1.591-1.421C11.605 23.544 19.844 15.194 30.411 10.454z" fill="#ed2647" data-fill-palette-color="accent"></path><path d="M54.118 69.943c0.906 0 1.785-0.188 2.619-0.562 1.557-0.699 2.749-1.963 3.36-3.561 0.608-1.6 0.555-3.34-0.141-4.896-1.404-3.125-5.339-4.627-8.458-3.223-3.223 1.439-4.669 5.236-3.227 8.467C49.307 68.46 51.602 69.943 54.118 69.943z" fill="#ed2647" data-fill-palette-color="accent"></path><path d="M56.925 37.111c0.905 0 1.786-0.189 2.617-0.56 3.221-1.445 4.664-5.237 3.221-8.462-1.404-3.122-5.319-4.62-8.462-3.218-3.212 1.442-4.66 5.234-3.22 8.467C52.117 35.63 54.412 37.111 56.925 37.111z" fill="#ed2647" data-fill-palette-color="accent"></path><path d="M34.98 43.871c-3.24 1.392-4.744 5.164-3.35 8.414 1.013 2.35 3.322 3.869 5.878 3.869 0.873 0 1.726-0.176 2.526-0.521 1.57-0.68 2.788-1.924 3.42-3.514 0.633-1.589 0.607-3.328-0.066-4.895C42.035 44.07 38.131 42.508 34.98 43.871z" fill="#ed2647" data-fill-palette-color="accent"></path></g></svg></g></svg></g><g><rect width="154.49442831463315" height="3.2974520990473457" y="89.39376264361329" x="241.02557168536686" fill="#ed2647" data-fill-palette-color="accent"></rect><rect width="154.49442831463315" height="3.2974520990473457" y="89.39376264361329" x="0" fill="#ed2647" data-fill-palette-color="accent"></rect><rect width="154.49442831463315" height="3.2974520990473457" y="82.79885844551859" x="241.02557168536686" fill="#ed2647" data-fill-palette-color="accent"></rect><rect width="154.49442831463315" height="3.2974520990473457" y="82.79885844551859" x="0" fill="#ed2647" data-fill-palette-color="accent"></rect></g></svg></g><defs></defs></svg><rect width="395.52" height="170.1172208203911" fill="none" stroke="none" visibility="hidden"></rect></g></svg></g></svg>